<?xml version="1.0" encoding="utf-8" ?><svg xmlns="http://www.w3.org/2000/svg" xmlns:xlink="http://www.w3.org/1999/xlink" width="1024" height="1024" viewBox="0 0 1024 1024"><path fill="#070707" d="M326.69 511.734C290.333 477.955 203.754 395.538 221.201 338.151C238.487 281.295 336.039 307.372 377.867 320.752C379.498 322.187 379.52 324.168 381.865 323.137C382.288 322.951 385.094 323.166 385.546 324.688C386.193 326.871 393.97 326.669 395.005 326.594C397.53 327.423 400.065 328.224 402.608 328.997C404.896 329.846 407.673 331.269 409.842 331.822C422.944 337.68 436.42 342.308 449.677 348.473C466.504 356.299 483.552 365.541 500.213 373.374C502.184 374.793 505.586 377.223 507.994 377.464C529.315 390.67 550.047 401.707 571.661 415.792C585.894 425.046 599.903 434.641 613.674 444.57C625.01 452.826 636.044 461.464 647.51 469.603C649.21 471.397 653.587 475.254 655.617 476.61C658.821 478.549 667.758 486.66 671.179 489.563C677.775 495.159 685.778 501.445 692.045 507.24C693.213 509.808 695.124 511.53 697.607 512.865C728.955 537.69 761.953 577.452 784.84 611.05C813.678 653.383 819.956 713.922 753.524 720.294C707.67 724.692 665.862 709.891 622.352 695.394C620.103 694.18 617.912 693.992 615.441 692.927C612.781 691.542 609.659 690.26 606.827 689.219C577.839 678.567 551.245 663.359 523.376 650.307C520.819 648.812 518.364 647.298 515.616 646.178C511.118 642.91 504.575 639.289 499.62 636.498C456.194 612.033 416.764 584.036 377.017 554.093C375.837 552.537 370.833 548.944 368.981 547.897C368.704 547.257 336.41 520.26 332.986 517.338C331.794 515.487 328.544 512.929 326.69 511.734ZM377.31 472.75C375.591 489.385 375.202 509.44 375.59 526.225C395.462 541.98 414.908 557.951 435.948 572.272C464.61 591.781 493.82 610.186 524.376 626.604C527.245 628.146 534.953 632.469 537.917 632.694L538.977 632.287C566.857 616.08 594.916 595.32 620.014 574.968C628.671 567.948 639.929 558.461 647.795 550.54C649.001 531.884 649.782 517.001 649.029 498.288C647.91 496.173 641.502 491.581 639.051 489.54C606.98 462.827 570.125 438.236 534.455 416.62C521.99 409.065 499.625 395.732 486.559 390.316C465.401 404.012 446.533 416.584 426.349 431.903C408.437 445.499 394.047 457.978 377.31 472.75ZM342.328 495.015C350.604 486.76 362.107 476.607 369.597 468.651C370.676 460.554 371.067 451.719 372.24 443.105C376.67 410.571 382.943 382.503 393.835 351.603C362.666 341.607 285.728 322.949 270.107 366.182C269.425 368.071 268.973 371.286 268.566 373.364C267.877 373.285 267.624 373.092 267.056 373.167C266.748 373.489 266.74 375.063 266.565 375.754C265.306 380.732 266.61 384.194 267.165 388.714C267.851 394.317 269.193 396.927 270.476 401.978C271.263 404.993 272.521 407.865 274.204 410.488C275.792 412.936 275.21 413.417 277.659 415.151C292.067 440.948 308.061 461.017 329.026 481.925C332.998 485.887 338.241 491.47 342.328 495.015ZM654.974 555.409C653.948 562.2 653.67 569.729 652.871 576.682C651.15 592.081 648.658 607.385 645.406 622.535C643.009 633.451 640.212 644.276 637.02 654.986C635.788 659.084 632.384 668.732 631.712 672.486C798.872 722.38 777.542 613.815 682.418 528.942C676.74 533.63 670.632 540.484 665.133 545.632C662.697 547.912 656.885 553.119 654.974 555.409ZM657.105 505.413C657.567 516.181 656.765 531.684 656.184 542.831C662.48 537.236 670.587 529.637 676.205 523.447C670.578 516.868 663.439 511.248 657.105 505.413ZM546.129 637.35C561.299 645.115 578.815 653.416 594.728 659.482C600.823 661.784 606.957 663.983 613.126 666.076C615.4 666.848 622.117 668.936 623.971 669.873C636.477 639.588 643.285 595.109 646.389 562.841C622.967 584.04 597.884 602.631 571.944 620.607C563.506 626.454 554.639 631.464 546.129 637.35ZM368.385 481.399C364.604 484.687 360.551 488.45 356.932 491.93C353.673 495.062 352.053 497.938 347.917 500.656C351.593 503.977 356.125 508.844 359.885 512.273C362.318 514.492 365.02 516.573 367.428 518.837C367.345 507.776 367.402 492.285 368.385 481.399ZM401.208 354.127C391.159 381.977 384.646 409.631 380.751 439.004C379.943 445.094 378.307 454.504 378.602 460.426C396.112 446.038 413.271 430.965 431.858 417.949C447.025 407.327 462.548 395.512 478.63 386.332C461.06 376.246 420.873 359.313 401.208 354.127Z"/><path fill="#070707" d="M557.623 546.032C539.492 569.574 506.296 575.197 481.422 558.94C456.549 542.682 448.376 510.02 462.663 483.964C476.949 457.908 508.881 447.236 535.964 459.465C563.046 471.695 576.155 502.707 566.055 530.653C564.054 531.1 565.32 532.31 563.774 532.579C563.764 532.468 563.753 532.357 563.743 532.245C563.214 532.663 561.241 536.395 560.876 537.301C559.406 540.942 557.344 542.206 557.623 546.032Z"/><path fill="#070707" fill-opacity="0.96862745" d="M557.623 546.032C557.344 542.206 559.406 540.942 560.876 537.301C561.241 536.395 563.214 532.663 563.743 532.245C563.753 532.357 563.764 532.468 563.774 532.579C565.32 532.31 564.054 531.1 566.055 530.653C564.056 536.184 561.212 541.372 557.623 546.032Z"/><path fill="#252222" d="M393.835 351.603C396.853 352.384 398.374 352.692 401.208 354.127C391.159 381.977 384.646 409.631 380.751 439.004C379.943 445.094 378.307 454.504 378.602 460.426C396.112 446.038 413.271 430.965 431.858 417.949C447.025 407.327 462.548 395.512 478.63 386.332L486.559 390.316C465.401 404.012 446.533 416.584 426.349 431.903C408.437 445.499 394.047 457.978 377.31 472.75C375.591 489.385 375.202 509.44 375.59 526.225C373.966 525.199 368.3 520.494 367.428 518.837C367.345 507.776 367.402 492.285 368.385 481.399C364.604 484.687 360.551 488.45 356.932 491.93C353.673 495.062 352.053 497.938 347.917 500.656C345.861 499.262 343.807 496.97 342.328 495.015C350.604 486.76 362.107 476.607 369.597 468.651C370.676 460.554 371.067 451.719 372.24 443.105C376.67 410.571 382.943 382.503 393.835 351.603Z"/><path fill="#252222" d="M649.029 498.288C651.601 500.046 655.082 503.039 657.105 505.413C657.567 516.181 656.765 531.684 656.184 542.831C662.48 537.236 670.587 529.637 676.205 523.447C678.153 524.724 680.987 527.128 682.418 528.942C676.74 533.63 670.632 540.484 665.133 545.632C662.697 547.912 656.885 553.119 654.974 555.409C653.948 562.2 653.67 569.729 652.871 576.682C651.15 592.081 648.658 607.385 645.406 622.535C643.009 633.451 640.212 644.276 637.02 654.986C635.788 659.084 632.384 668.732 631.712 672.486C629.395 672.14 626.018 671.074 623.971 669.873C636.477 639.588 643.285 595.109 646.389 562.841C622.967 584.04 597.884 602.631 571.944 620.607C563.506 626.454 554.639 631.464 546.129 637.35C543.27 637.214 540.299 634.773 538.977 632.287C566.857 616.08 594.916 595.32 620.014 574.968C628.671 567.948 639.929 558.461 647.795 550.54C649.001 531.884 649.782 517.001 649.029 498.288Z"/><path fill="#070707" fill-opacity="0.95294118" d="M277.659 415.151C275.21 413.417 275.792 412.936 274.204 410.488C272.521 407.865 271.263 404.993 270.476 401.978C269.193 396.927 267.851 394.317 267.165 388.714C266.61 384.194 265.306 380.732 266.565 375.754C266.74 375.063 266.748 373.489 267.056 373.167C267.624 373.092 267.877 373.285 268.566 373.364C267.515 386.696 269.674 396.462 274.873 408.796C275.799 410.991 276.879 412.875 277.659 415.151Z"/><path fill="#252222" d="M456.003 247.636C467.072 238.794 476.653 231.906 490.371 227.93C549.146 210.893 594.168 263.853 616.915 311.201C618.771 315.066 620.731 318.961 622.292 322.904C631.855 321.052 641.763 318.815 651.461 318.477C651.203 320.812 651.248 323.17 651.592 325.494C641.788 326.564 635.061 328.108 625.48 330.383C628.417 340.941 633.614 352.679 636.96 363.877C645.733 393.264 651.485 423.471 654.126 454.026C654.776 461.336 655.574 469.321 655.617 476.61C653.587 475.254 649.21 471.397 647.51 469.603C647.723 462.05 646.121 449.932 645.217 442.161C640.991 405.818 632.047 365.866 617.259 332.232C589.749 339.85 562.974 349.906 537.25 362.28C526.841 367.265 518.002 372.345 507.994 377.464C505.586 377.223 502.184 374.793 500.213 373.374C532.789 354.035 577.54 334.33 614.474 325.221C608.39 310.145 600.558 295.834 591.141 282.582C574.73 259.848 550.703 237.363 522.161 233.439C498.068 230.128 480.961 238.742 462.36 252.515C460.501 250.575 458.358 248.93 456.003 247.636Z"/><path fill="#252222" d="M368.981 547.897C370.833 548.944 375.837 552.537 377.017 554.093C379.428 596.658 389.484 651.66 406.99 690.789C414.198 689.528 422.185 686.529 429.243 684.373C460.369 674.863 486.998 660.913 515.616 646.178C518.364 647.298 520.819 648.812 523.376 650.307C490.706 669.977 446.597 688.291 409.98 698.827L410.499 699.684C413.818 705.262 417.26 713.607 420.501 719.753C449.629 774.997 506.033 819.819 563.482 770.493C565.579 771.635 568.129 773.729 569.496 775.699C509.521 828.206 447.87 785.784 415.903 727.468C410.99 718.505 406.368 710.271 403.059 700.477C396.183 701.366 383.638 704.112 376.698 705.568C377.027 702.864 376.947 700.126 376.461 697.446C385.24 696.477 390.522 695.311 398.837 692.962C386.104 657.656 377.202 626.625 372.758 589.17C371.085 575.069 370.171 561.996 368.981 547.897Z"/><path fill="#070707" d="M651.461 318.477C652.992 304.587 664.742 294.082 678.716 294.108C692.69 294.133 704.401 304.682 705.881 318.578C706.144 321.044 706.07 323.534 705.662 325.98C703.446 339.268 691.89 348.967 678.419 348.846C664.949 348.724 653.569 338.819 651.592 325.494C651.248 323.17 651.203 320.812 651.461 318.477Z"/><path fill="#070707" d="M322.735 698.923C324.399 685.599 335.541 675.485 348.964 675.116C362.386 674.747 374.068 684.234 376.461 697.446C376.947 700.126 377.027 702.864 376.698 705.568C375.063 719.033 363.754 729.233 350.192 729.473C336.631 729.713 324.967 719.92 322.857 706.522C322.46 704.007 322.419 701.449 322.735 698.923Z"/><path fill="#070707" d="M423.592 288.42C415.003 278.825 414.58 264.436 422.592 254.355C430.604 244.273 444.717 241.435 456.003 247.636C458.358 248.93 460.501 250.575 462.36 252.515C471.588 262.148 472.189 277.148 463.761 287.488C455.333 297.828 440.52 300.265 429.224 293.17C427.134 291.857 425.239 290.258 423.592 288.42Z"/><path fill="#070707" d="M563.482 770.493C561.994 768.722 560.077 765.5 559.152 763.344C556.237 756.52 556.248 748.799 559.181 741.983C562.076 735.493 567.456 730.438 574.114 727.954C582.986 724.618 589.091 726.427 597.118 729.974L597.945 730.524C599.844 731.74 601.18 733.593 603.073 734.996C609.458 742.969 611.529 752.908 607.81 762.585C607.1 762.7 606.034 762.589 605.775 763.237C604.691 765.957 601.907 768.552 602.139 771.419C595.4 779.596 584.011 780.535 574.519 777.543C573.434 777.201 570.355 775.686 569.496 775.699C568.129 773.729 565.579 771.635 563.482 770.493Z"/><path fill="#252222" d="M326.69 511.734C328.544 512.929 331.794 515.487 332.986 517.338C300.337 549.828 238.146 635.226 281.445 680.684C291.781 691.536 307.826 697.718 322.735 698.923C322.419 701.449 322.46 704.007 322.857 706.522C307.297 705.225 290.012 699.533 278.709 688.746C225.028 637.508 292.498 550.119 326.69 511.734Z"/><path fill="#252222" d="M705.881 318.578C715.487 319.189 728.994 324.429 736.695 329.842C793.193 369.55 751.159 446.052 718.899 487.18C711.799 496.232 704.876 504.397 697.607 512.865C695.124 511.53 693.213 509.808 692.045 507.24C694.866 504.428 700.932 497.016 703.766 493.542C726.268 465.631 747.86 435.251 755.06 399.427C762.897 360.431 744.435 333.513 705.662 325.98C706.07 323.534 706.144 321.044 705.881 318.578Z"/><path fill="#252222" d="M423.592 288.42C425.239 290.258 427.134 291.857 429.224 293.17C424.141 300.098 413.046 323.874 409.842 331.822C407.673 331.269 404.896 329.846 402.608 328.997C403.81 326.582 404.823 324.159 405.922 321.703C411.117 310.084 417.145 299.361 423.592 288.42Z"/><path fill="#252222" d="M615.441 692.927C617.912 693.992 620.103 694.18 622.352 695.394C621.911 697.021 621.701 697.46 621.041 699.005C617.368 707.803 613.284 716.422 608.802 724.836C607.297 727.7 604.225 732.513 603.073 734.996C601.18 733.593 599.844 731.74 597.945 730.524L597.118 729.974C601.766 722.753 612.618 701.009 615.441 692.927Z"/><path fill="#070707" fill-opacity="0.96470588" d="M377.867 320.752C383.635 322.787 389.225 324.195 395.005 326.594C393.97 326.669 386.193 326.871 385.546 324.688C385.094 323.166 382.288 322.951 381.865 323.137C379.52 324.168 379.498 322.187 377.867 320.752Z"/><path fill="#070707" fill-opacity="0.96862745" d="M602.139 771.419C601.907 768.552 604.691 765.957 605.775 763.237C606.034 762.589 607.1 762.7 607.81 762.585C606.764 765.493 604.394 769.264 602.139 771.419Z"/></svg>